<mxfile host="app.diagrams.net" modified="2022-01-24T04:01:24.066Z" agent="5.0 (Windows NT 10.0; Win64; x64) AppleWebKit/537.36 (KHTML, like Gecko) Chrome/96.0.4664.45 Safari/537.36" etag="CHLYCOzEKq5M6oUdJJ_q" version="15.9.4" type="github">
  <diagram id="ina5q-MMzBwLPQNnRXQV" name="第 1 页">
    <mxGraphModel dx="1422" dy="762" grid="1" gridSize="10" guides="1" tooltips="1" connect="1" arrows="1" fold="1" page="1" pageScale="1" pageWidth="827" pageHeight="1169" math="0" shadow="0">
      <root>
        <mxCell id="0" />
        <mxCell id="1" parent="0" />
        <mxCell id="_j4ldURv0qFXSPAYDD44-1" value="Java" style="shape=note;whiteSpace=wrap;html=1;backgroundOutline=1;darkOpacity=0.05;" vertex="1" parent="1">
          <mxGeometry x="30" y="50" width="80" height="100" as="geometry" />
        </mxCell>
        <mxCell id="_j4ldURv0qFXSPAYDD44-2" value="Class" style="shape=note;whiteSpace=wrap;html=1;backgroundOutline=1;darkOpacity=0.05;" vertex="1" parent="1">
          <mxGeometry x="230" y="50" width="80" height="100" as="geometry" />
        </mxCell>
        <mxCell id="_j4ldURv0qFXSPAYDD44-4" value="Compile" style="html=1;shadow=0;dashed=0;align=center;verticalAlign=middle;shape=mxgraph.arrows2.arrow;dy=0.6;dx=40;notch=0;" vertex="1" parent="1">
          <mxGeometry x="110" y="70" width="120" height="70" as="geometry" />
        </mxCell>
      </root>
    </mxGraphModel>
  </diagram>
</mxfile>
